<svg width="280" height="168" viewBox="0 0 280 168" fill="none" xmlns="http://www.w3.org/2000/svg">
  <g clip-path="url(#clip0_229_1019)">
    <rect width="280" height="168" fill="#111827" />
    <g filter="url(#filter0_f_229_1019)">
      <path
        d="M261.882 23.1195C302.687 63.9238 314.552 118.216 288.384 144.384C262.215 170.552 207.924 158.687 167.119 117.883C126.315 77.0784 114.45 22.7865 140.618 -3.38162C166.786 -29.5498 221.078 -17.6848 261.882 23.1195Z"
        fill="#A855F7" />
      <path
        d="M47.3138 19.5681C24.4622 8.67084 1.70221 4.23681 -17.8754 6.86814C-37.453 9.49947 -52.8994 19.0686 -62.117 34.2762C-71.3346 49.4837 -73.8768 69.5926 -69.3982 91.8721C-64.9197 114.152 -53.6374 137.522 -37.0837 158.81C-20.5299 180.097 0.493204 198.27 23.1307 210.861C45.7682 223.452 68.9231 229.85 89.4508 229.187C109.979 228.524 126.885 220.832 137.873 207.155C148.861 193.478 153.399 174.479 150.871 152.739L40.0002 117.682L47.3138 19.5681Z"
        fill="#A855F7" />
      <path
        d="M196.343 -15.4225C219.901 8.13645 226.74 39.4943 211.617 54.6174C196.494 69.7404 165.136 62.9018 141.577 39.3428C118.018 15.7839 111.18 -15.5739 126.303 -30.697C141.426 -45.82 172.784 -38.9814 196.343 -15.4225Z"
        fill="#2DD4BF" fill-opacity="0.8" />
      <path
        d="M27.3828 116.617C50.9417 140.176 57.7803 171.534 42.6573 186.657C27.5343 201.78 -3.8236 194.942 -27.3825 171.383C-50.9414 147.824 -57.78 116.466 -42.657 101.343C-27.534 86.2198 3.82389 93.0584 27.3828 116.617Z"
        fill="#2DD4BF" fill-opacity="0.64" />
      <path
        d="M290.129 70.955C314.5 95.3265 313.766 135.574 288.489 160.851C263.212 186.129 222.964 186.863 198.592 162.491C174.221 138.12 174.955 97.8718 200.232 72.5948C225.509 47.3178 265.757 46.5836 290.129 70.955Z"
        fill="#2DD4BF" />
      <path d="M0.00012207 1.14441e-05H280V168H0.00012207V1.14441e-05Z" fill="#111827" fill-opacity="0.4" />
    </g>
  </g>
  <defs>
    <filter id="filter0_f_229_1019" x="-119.552" y="-86.7357" width="475.49" height="363.97"
      filterUnits="userSpaceOnUse" color-interpolation-filters="sRGB">
      <feFlood flood-opacity="0" result="BackgroundImageFix" />
      <feBlend mode="normal" in="SourceGraphic" in2="BackgroundImageFix" result="shape" />
      <feGaussianBlur stdDeviation="24" result="effect1_foregroundBlur_229_1019" />
    </filter>
    <clipPath id="clip0_229_1019">
      <rect width="280" height="168" fill="white" />
    </clipPath>
  </defs>
</svg>